<svg width="26" height="20" viewBox="0 0 26 20" fill="none" xmlns="http://www.w3.org/2000/svg">
<g clip-path="url(#clip0_10606_68)">
<path d="M11.2143 11.5193C11.0284 10.8369 10.4961 10.2999 9.82031 10.1133V11.5193H11.2143Z" fill="#369BFF"/>
<path d="M25.5615 8.92384C24.9224 5.50235 23.4259 -0.108758 19.6357 0.00161247C17.1858 0.073168 17.7379 2.65191 13.5939 2.23206C13.5355 2.32272 12.5948 2.32272 12.5364 2.23206C8.39257 2.65191 8.9445 0.073168 6.49465 0.00161247C2.70443 -0.109054 1.20813 5.50235 0.569031 8.92384C-0.245853 13.287 -0.736747 21.6201 4.05469 19.7238C4.59159 19.5115 10.6462 15.7198 11.3744 15.7198H14.7557C15.4841 15.7198 21.5391 19.5102 22.0754 19.7238C26.6883 21.5601 26.3763 13.2868 25.5616 8.92384H25.5615ZM4.01764 7.13939C4.01764 6.08021 4.86748 5.22146 5.91579 5.22146C6.96424 5.22146 7.814 6.08021 7.814 7.13939C7.814 8.19858 6.96424 9.05732 5.91579 9.05732C4.86726 9.05732 4.01742 8.1988 4.01742 7.13954L4.01764 7.13939ZM11.3244 12.5053L11.3021 12.5924C11.1099 13.3194 10.5414 13.8907 9.82034 14.0809L9.69149 14.1121C9.56359 14.1371 9.43178 14.1512 9.2968 14.1512C9.16167 14.1512 9.03001 14.1371 8.9021 14.1121L8.75874 14.0772C8.04446 13.8832 7.48236 13.3144 7.29155 12.5924L7.25479 12.4301C7.23254 12.3072 7.21918 12.1812 7.21918 12.052C7.21918 11.9227 7.23254 11.7967 7.25479 11.6738L7.28945 11.5198C7.47824 10.7938 8.04172 10.2216 8.75874 10.0267L8.86086 10.0001C9.00155 9.96969 9.14715 9.95272 9.2968 9.95272C9.44637 9.95272 9.59197 9.96969 9.73273 10.0001L9.82034 10.0229C10.5442 10.2139 11.1141 10.7889 11.3041 11.5198L11.3243 11.5987C11.3562 11.7449 11.3744 11.8961 11.3744 12.052C11.3744 12.2075 11.3564 12.3594 11.3246 12.5053H11.3244ZM20.0033 5.5665C20.4154 5.5665 20.7494 5.90406 20.7494 6.32035C20.7494 6.7368 20.4154 7.07428 20.0033 7.07428C19.5914 7.07428 19.2573 6.7368 19.2573 6.32035C19.2573 5.90406 19.5909 5.5665 20.0033 5.5665ZM16.8624 13.8309C15.8154 13.8309 14.9668 12.9733 14.9668 11.9155C14.9668 10.8577 15.8154 9.99998 16.8624 9.99998C17.9096 9.99998 18.7583 10.8577 18.7583 11.9155C18.7583 12.9733 17.9097 13.8311 16.8624 13.8311L16.8624 13.8309ZM18.5112 8.58206C18.0991 8.58206 17.7651 8.2445 17.7651 7.82806C17.7651 7.41169 18.0991 7.07421 18.5112 7.07421C18.9232 7.07421 19.2573 7.41169 19.2573 7.82806C19.2573 8.24435 18.9229 8.58206 18.5112 8.58206ZM20.0033 10.0895C19.5914 10.0895 19.2573 9.75191 19.2573 9.33561C19.2573 8.91932 19.5914 8.58176 20.0033 8.58176C20.4154 8.58176 20.7494 8.91932 20.7494 9.33561C20.7494 9.75191 20.415 10.0897 20.0034 10.0897L20.0033 10.0895ZM21.4954 8.58206C21.0835 8.58206 20.7494 8.24458 20.7494 7.82821C20.7494 7.41184 21.0835 7.07428 21.4954 7.07428C21.9075 7.07428 22.2417 7.41184 22.2417 7.82821C22.2417 8.24458 21.9073 8.58228 21.4956 8.58228L21.4954 8.58206Z" fill="#369BFF"/>
<path d="M9.82031 13.9916C10.4934 13.8056 11.0243 13.2721 11.2122 12.5938H9.82031V13.9916Z" fill="#369BFF"/>
<path d="M7.38184 12.5938C7.56831 13.2673 8.09286 13.7983 8.75911 13.9878V12.5938H7.38184Z" fill="#369BFF"/>
<path d="M8.75933 10.1173C8.0904 10.3076 7.56434 10.842 7.37988 11.5194H8.75933V10.1172V10.1173Z" fill="#369BFF"/>
</g>
<defs>
<clipPath id="clip0_10606_68">
<rect width="26" height="20" fill="white"/>
</clipPath>
</defs>
</svg>
