<svg width="24" height="24" viewBox="0 0 24 24" fill="none" xmlns="http://www.w3.org/2000/svg">
<path fill-rule="evenodd" clip-rule="evenodd" d="M9.26272 9.75267C8.29507 8.24091 8.73616 6.23095 10.2479 5.26331C11.7597 4.29566 13.7696 4.73675 14.7373 6.24851C15.7049 7.76026 15.2638 9.77022 13.7521 10.7379C12.2403 11.7055 10.2304 11.2644 9.26272 9.75267ZM9.43927 3.99995C7.22977 5.4142 6.5851 8.35183 7.99936 10.5613C8.31323 11.0517 8.70215 11.465 9.14148 11.7958C6.27601 12.9335 4.25 15.7309 4.25 19.0016V20.0016C4.25 20.4158 4.58579 20.7516 5 20.7516C5.41421 20.7516 5.75 20.4158 5.75 20.0016V19.0016C5.75 15.5498 8.54822 12.7516 12 12.7516C15.4518 12.7516 18.25 15.5498 18.25 19.0016V20.0016C18.25 20.4158 18.5858 20.7516 19 20.7516C19.4142 20.7516 19.75 20.4158 19.75 20.0016V19.0016C19.75 15.7305 17.7234 12.9327 14.8574 11.7953C16.8255 10.3167 17.3495 7.54711 16.0006 5.43985C14.5864 3.23036 11.6488 2.58569 9.43927 3.99995Z" fill="#292927"/>
</svg>
